<svg version="1.1" xmlns="http://www.w3.org/2000/svg" xmlns:xlink="http://www.w3.org/1999/xlink" viewBox="0 0 172 172"><g transform=""><g fill="none" fill-rule="nonzero" stroke="none" stroke-width="1" stroke-linecap="butt" stroke-linejoin="miter" stroke-miterlimit="10" stroke-dasharray="" stroke-dashoffset="0" font-family="none" font-weight="none" font-size="none" text-anchor="none" style="mix-blend-mode: normal"><path d="M0,172v-172h172v172z" fill="none"></path><path d="M86,172c-47.49649,0 -86,-38.50351 -86,-86v0c0,-47.49649 38.50351,-86 86,-86h0c47.49649,0 86,38.50351 86,86v0c0,47.49649 -38.50351,86 -86,86z" fill="#473366"></path><g fill="#ffffff"><path d="M85.56958,18.275c-12.1475,0 -19.24124,18.275 -22.89624,32.25h-18.59834c-5.375,0 -9.675,4.3 -9.675,9.675v83.85c0,5.375 4.3,9.675 9.675,9.675h83.85c5.375,0 9.675,-4.3 9.675,-9.675v-83.85c0,-5.375 -4.3,-9.675 -9.675,-9.675h-19.56416c-4.4075,-14.0825 -12.14876,-32.25 -22.79126,-32.25zM85.56958,24.725c5.375,0 11.50334,12.47 15.91084,25.8h-32.03584c3.5475,-12.685 9.1375,-25.8 16.125,-25.8zM44.075,56.975h17.09292c-0.9675,4.3 -1.3975,7.63166 -1.6125,8.81416c-0.215,1.72 0.9675,3.44042 2.6875,3.65542c1.72,0.215 3.44042,-0.9675 3.65542,-2.6875c0.43,-2.795 1.07416,-6.1275 1.82666,-9.675h35.68916c0.9675,3.44 1.82792,6.88126 2.58042,9.89126c0.3225,1.505 1.61292,2.57832 3.11792,2.57832c0.215,0 0.42958,0.00042 0.64458,-0.10708c1.72,-0.43 2.79584,-2.14958 2.47334,-3.86958c-0.3225,-1.72 -1.075,-4.73 -2.15,-8.6h17.84458c1.8275,0 3.225,1.3975 3.225,3.225v83.85c0,1.8275 -1.3975,3.225 -3.225,3.225h-83.85c-1.8275,0 -3.225,-1.3975 -3.225,-3.225v-83.85c0,-1.8275 1.3975,-3.225 3.225,-3.225zM74.40176,89.05073c-0.28494,0.00462 -0.57571,0.02688 -0.87134,0.06719c-2.6875,0.3225 -4.40876,2.79374 -7.74126,7.30874c-0.9675,1.29 -1.93332,2.68792 -3.11582,4.19292c-0.86,1.3975 -0.64584,3.44126 0.75166,4.51626c1.3975,1.075 3.43916,0.86 4.51416,-0.5375c1.1825,-1.505 2.2575,-3.01 3.225,-4.3c1.29,-1.72 2.90292,-3.97792 3.65542,-4.73042c1.29,0.3225 3.3325,2.90292 4.8375,4.73042c2.9025,3.5475 6.12708,7.63208 10.85708,7.63208h0.86084c3.3325,-0.3225 5.80542,-2.68792 7.95542,-4.73042c1.6125,-1.6125 3.22458,-3.11834 4.40708,-3.01084c0.3225,0 0.85916,0.21542 1.28916,0.43042c1.6125,0.7525 3.5475,0.10708 4.3,-1.50542c0.7525,-1.6125 0.10918,-3.5475 -1.50332,-4.3c-1.1825,-0.5375 -2.36584,-0.9675 -3.54834,-1.075c-4.1925,-0.43 -7.20292,2.47292 -9.56792,4.73042c-1.505,1.3975 -3.01042,2.90334 -4.19292,3.01084c-1.72,0.215 -4.08458,-2.79542 -6.01958,-5.26792c-2.72109,-3.42656 -5.81867,-7.23106 -10.09282,-7.16177z"></path></g><path d="" fill="none"></path></g></g></svg>